<?xml version="1.0" encoding="UTF-8"?>
<svg width="48px" height="48px" viewBox="0 0 48 48" version="1.1" xmlns="http://www.w3.org/2000/svg" xmlns:xlink="http://www.w3.org/1999/xlink">
    <title>Icon webcam</title>
    <g id="Demos" stroke="none" stroke-width="1" fill="none" fill-rule="evenodd">
        <g id="Record" transform="translate(-504.000000, -372.000000)">
            <g id="Group" transform="translate(464.000000, 52.000000)">
                <g id="Group-2" transform="translate(40.000000, 212.000000)">
                    <g id="Icon-webcam" transform="translate(0.000000, 108.000000)">
                        <rect id="Rectangle-Copy" fill="#FEF3F0" x="0" y="0" width="48" height="48" rx="8"></rect>
                        <g id="webcam-2" transform="translate(16.000000, 16.000000)" fill="#E53101" fill-rule="nonzero">
                            <path d="M15.2,13.5 L13.7,11 C14.5,9.9 15,8.5 15,7 C15,3.1 11.9,0 8,0 C4.1,0 1,3.1 1,7 C1,8.5 1.5,9.9 2.3,11 L0.8,13.5 C0.5,14.1 0.5,14.7 0.9,15.3 C1.3,15.8 1.9,16.1 2.5,16 L8,15 L13.5,16 C13.6,16 13.7,16 13.8,16 C14.3,16 14.8,15.7 15.1,15.3 C15.6,14.8 15.6,14.1 15.2,13.5 Z M8,10 C6.3,10 5,8.7 5,7 C5,5.3 6.3,4 8,4 C9.7,4 11,5.3 11,7 C11,8.7 9.7,10 8,10 Z" id="Shape"></path>
                        </g>
                    </g>
                </g>
            </g>
        </g>
    </g>
</svg>