<?xml version="1.0" encoding="UTF-8"?>
<svg width="48px" height="48px" viewBox="0 0 48 48" version="1.1" xmlns="http://www.w3.org/2000/svg" xmlns:xlink="http://www.w3.org/1999/xlink">
    <title>Icon cc</title>
    <g id="Demos" stroke="none" stroke-width="1" fill="none" fill-rule="evenodd">
        <g id="Record" transform="translate(-504.000000, -676.000000)">
            <g id="Group" transform="translate(464.000000, 52.000000)">
                <g id="Group-4" transform="translate(40.000000, 556.000000)">
                    <g id="Icon-cc" transform="translate(0.000000, 68.000000)">
                        <rect id="Rectangle" fill="#FEF3F0" x="0" y="0" width="48" height="48" rx="8"></rect>
                        <g id="closed-caption" transform="translate(16.000000, 20.000000)" fill="#E53101" fill-rule="nonzero">
                            <path d="M3.714,8 C1.423,8 0,6.468 0,4 C0,1.532 1.423,0 3.714,0 C4.31668725,-0.00821921102 4.9127092,0.126819689 5.453,0.394 L6.344,0.846 L5.439,2.63 L4.547,2.177 C4.28748805,2.05222041 4.00182724,1.99152177 3.714,2 C3.2,2 2,2 2,4 C2,6 3.2,6 3.714,6 C4.00182724,6.00847823 4.28748805,5.94777959 4.547,5.823 L5.439,5.37 L6.344,7.154 L5.453,7.606 C4.9127092,7.87318031 4.31668725,8.00821921 3.714,8 Z" id="Path"></path>
                            <path d="M11.714,8 C9.423,8 8,6.468 8,4 C8,1.532 9.423,0 11.714,0 C12.3166872,-0.00821921102 12.9127092,0.126819689 13.453,0.394 L14.344,0.846 L13.444,2.63 L12.552,2.177 C12.2909768,2.0514342 12.0035059,1.99071541 11.714,2 C11.2,2 10,2 10,4 C10,6 11.2,6 11.714,6 C12.0018272,6.00847823 12.287488,5.94777959 12.547,5.823 L13.439,5.37 L14.339,7.154 L13.448,7.606 C12.9092188,7.87240863 12.3150021,8.00742671 11.714,8 L11.714,8 Z" id="Path"></path>
                        </g>
                    </g>
                </g>
            </g>
        </g>
    </g>
</svg>