<svg width="609" height="125" viewBox="0 0 609 125" fill="none" xmlns="http://www.w3.org/2000/svg">
<path d="M20.9559 45.2635C36.1399 18.7037 43.732 5.4238 54.039 1.731C60.481 -0.576999 67.519 -0.576999 73.961 1.731C84.268 5.4238 91.86 18.7037 107.044 45.2635C122.131 71.653 129.674 84.848 127.687 95.6245C126.444 102.361 122.931 108.462 117.737 112.9C109.428 120 94.2855 120 64 120C33.7143 120 18.5714 120 10.263 112.9C5.06915 108.462 1.5554 102.361 0.313081 95.6245C-1.67423 84.848 5.86915 71.653 20.9559 45.2635Z" fill="#FA5B30"/>
<path d="M85.206 83.6515C77.8705 95.4105 74.2025 101.29 69.334 103.062C65.8985 104.312 62.1015 104.312 58.666 103.062C53.7975 101.29 50.1295 95.4105 42.794 83.6515C35.1489 71.396 31.3264 65.2685 32.0976 60.237C32.6412 56.6915 34.5577 53.4695 37.4682 51.2085C41.5979 48 49.0652 48 64 48C78.935 48 86.402 48 90.532 51.2085C93.4425 53.4695 95.359 56.6915 95.9025 60.237C96.6735 65.2685 92.851 71.396 85.206 83.6515Z" fill="white"/>
<path d="M185.591 105.03C188.29 105.03 190.669 104.669 192.729 103.947C194.788 103.225 196.552 102.218 198.02 100.928C199.488 99.638 200.66 98.1406 201.535 96.4361H201.962V104H216.308V67.2102C216.308 63.9668 215.681 61.1792 214.426 58.8473C213.171 56.5154 211.461 54.6037 209.295 53.1122C207.129 51.6207 204.655 50.5199 201.873 49.8097C199.091 49.0994 196.185 48.7443 193.155 48.7443C188.799 48.7443 184.969 49.4013 181.667 50.7152C178.364 52.0291 175.671 53.8994 173.588 56.326C171.505 58.7526 170.108 61.6231 169.398 64.9375L183.389 66.0739C183.91 64.2746 184.975 62.7772 186.585 61.5817C188.195 60.3861 190.361 59.7883 193.084 59.7883C195.664 59.7883 197.659 60.4039 199.067 61.6349C200.476 62.866 201.18 64.6061 201.18 66.8551V67.0682C201.18 68.2282 200.742 69.1042 199.866 69.696C198.991 70.2879 197.582 70.7318 195.641 71.0277C193.699 71.3236 191.143 71.6373 187.97 71.9687C185.271 72.2292 182.697 72.679 180.246 73.3182C177.796 73.9574 175.612 74.9044 173.695 76.1591C171.777 77.4138 170.262 79.071 169.149 81.1307C168.036 83.1903 167.48 85.7353 167.48 88.7656C167.48 92.3641 168.267 95.3648 169.842 97.7677C171.416 100.171 173.564 101.982 176.287 103.201C179.009 104.42 182.111 105.03 185.591 105.03ZM189.923 94.5895C187.603 94.5895 185.692 94.0509 184.188 92.9737C182.685 91.8965 181.933 90.3281 181.933 88.2685C181.933 86.848 182.3 85.6584 183.034 84.6996C183.768 83.7408 184.798 82.9773 186.124 82.4091C187.449 81.8409 189 81.4266 190.776 81.1662C191.604 81.0478 192.527 80.9117 193.545 80.7578C194.563 80.6039 195.581 80.4264 196.599 80.2251C197.617 80.0239 198.535 79.799 199.352 79.5504C200.168 79.3018 200.813 79.0237 201.287 78.7159V84.5043C201.287 86.4219 200.802 88.1382 199.831 89.6534C198.86 91.1685 197.523 92.37 195.818 93.2578C194.114 94.1456 192.149 94.5895 189.923 94.5895ZM243.176 124.455V95.2642H243.638C244.324 96.7793 245.319 98.2767 246.621 99.7564C247.923 101.236 249.598 102.461 251.646 103.432C253.693 104.402 256.185 104.888 259.121 104.888C263.264 104.888 267.01 103.817 270.36 101.674C273.71 99.5315 276.361 96.371 278.315 92.1925C280.268 88.014 281.244 82.8826 281.244 76.7983C281.244 70.5483 280.238 65.3459 278.226 61.191C276.213 57.0362 273.526 53.9231 270.165 51.8516C266.803 49.7801 263.133 48.7443 259.156 48.7443C256.102 48.7443 253.551 49.2592 251.503 50.2891C249.456 51.3189 247.798 52.5973 246.532 54.1243C245.265 55.6513 244.301 57.1487 243.638 58.6165H242.963V49.4545H228.048V124.455H243.176ZM254.327 92.8494C251.888 92.8494 249.817 92.1806 248.112 90.843C246.408 89.5054 245.106 87.6293 244.206 85.2145C243.306 82.7997 242.856 79.9706 242.856 76.7273C242.856 73.4839 243.306 70.6667 244.206 68.2756C245.106 65.8845 246.402 64.0379 248.094 62.7358C249.787 61.4337 251.865 60.7827 254.327 60.7827C256.812 60.7827 258.908 61.4574 260.612 62.8068C262.317 64.1562 263.607 66.0265 264.483 68.4176C265.359 70.8087 265.797 73.5786 265.797 76.7273C265.797 79.8996 265.353 82.6991 264.465 85.1257C263.577 87.5523 262.281 89.4463 260.577 90.8075C258.872 92.1688 256.789 92.8494 254.327 92.8494ZM298.922 42.4233C301.171 42.4233 303.094 41.6716 304.692 40.1683C306.29 38.665 307.089 36.8598 307.089 34.7528C307.089 32.6695 306.29 30.8762 304.692 29.3729C303.094 27.8695 301.159 27.1179 298.886 27.1179C296.661 27.1179 294.743 27.8695 293.133 29.3729C291.523 30.8762 290.719 32.6695 290.719 34.7528C290.719 36.8598 291.523 38.665 293.133 40.1683C294.743 41.6716 296.673 42.4233 298.922 42.4233ZM306.415 104V49.4545H291.287V104H306.415ZM327.345 104.923C328.884 104.923 330.292 104.539 331.571 103.769C332.849 103 333.885 101.97 334.678 100.68C335.471 99.3894 335.868 97.9631 335.868 96.4006C335.868 94.0805 335.015 92.0919 333.311 90.4347C331.606 88.7775 329.618 87.9489 327.345 87.9489C325.001 87.9489 322.995 88.7775 321.326 90.4347C319.657 92.0919 318.822 94.0805 318.822 96.4006C318.822 98.7443 319.657 100.751 321.326 102.42C322.995 104.089 325.001 104.923 327.345 104.923ZM380.058 104L399.127 49.4545H383.112L371.819 88.4815H371.251L359.923 49.4545H343.943L363.012 104H380.058ZM414.49 42.4233C416.739 42.4233 418.662 41.6716 420.26 40.1683C421.858 38.665 422.657 36.8598 422.657 34.7528C422.657 32.6695 421.858 30.8762 420.26 29.3729C418.662 27.8695 416.727 27.1179 414.454 27.1179C412.229 27.1179 410.311 27.8695 408.701 29.3729C407.091 30.8762 406.286 32.6695 406.286 34.7528C406.286 36.8598 407.091 38.665 408.701 40.1683C410.311 41.6716 412.24 42.4233 414.49 42.4233ZM421.982 104V49.4545H406.855V104H421.982ZM454.17 104.888C457.105 104.888 459.597 104.402 461.645 103.432C463.693 102.461 465.362 101.236 466.652 99.7564C467.942 98.2767 468.943 96.7793 469.653 95.2642H470.292V104H485.207V31.2727H470.114V58.6165H469.653C468.99 57.1487 468.025 55.6513 466.759 54.1243C465.492 52.5973 463.835 51.3189 461.787 50.2891C459.739 49.2592 457.188 48.7443 454.134 48.7443C450.133 48.7443 446.458 49.7801 443.108 51.8516C439.758 53.9231 437.077 57.0362 435.065 61.191C433.052 65.3459 432.046 70.5483 432.046 76.7983C432.046 82.8826 433.023 88.014 434.976 92.1925C436.929 96.371 439.581 99.5315 442.93 101.674C446.28 103.817 450.027 104.888 454.17 104.888ZM458.964 92.8494C456.478 92.8494 454.389 92.1688 452.696 90.8075C451.003 89.4463 449.713 87.5523 448.825 85.1257C447.938 82.6991 447.494 79.8996 447.494 76.7273C447.494 73.5786 447.932 70.8087 448.808 68.4176C449.684 66.0265 450.974 64.1562 452.678 62.8068C454.383 61.4574 456.478 60.7827 458.964 60.7827C461.402 60.7827 463.474 61.4337 465.178 62.7358C466.883 64.0379 468.185 65.8845 469.085 68.2756C469.984 70.6667 470.434 73.4839 470.434 76.7273C470.434 79.9706 469.978 82.7997 469.067 85.2145C468.155 87.6293 466.853 89.5054 465.161 90.843C463.468 92.1806 461.402 92.8494 458.964 92.8494ZM522.451 105.065C526.949 105.065 530.92 104.373 534.365 102.988C537.81 101.603 540.627 99.6617 542.817 97.1641C545.007 94.6664 546.457 91.7367 547.167 88.375L533.175 87.4517C532.655 88.8248 531.897 89.9848 530.903 90.9318C529.908 91.8788 528.713 92.589 527.316 93.0625C525.919 93.536 524.38 93.7727 522.7 93.7727C520.166 93.7727 517.977 93.2401 516.13 92.1747C514.283 91.1094 512.857 89.5942 511.851 87.6293C510.845 85.6643 510.342 83.3324 510.342 80.6335L510.341 80.599L547.487 80.598V76.4432C547.487 71.803 546.835 67.7488 545.533 64.2805C544.231 60.8123 542.414 57.9299 540.082 55.6335C537.75 53.3371 535.028 51.6148 531.915 50.4666C528.802 49.3184 525.446 48.7443 521.847 48.7443C516.497 48.7443 511.839 49.928 507.874 52.2954C503.908 54.6629 500.836 57.9654 498.658 62.2031C496.48 66.4408 495.391 71.365 495.391 76.9758C495.391 82.7287 496.48 87.7062 498.658 91.9084C500.836 96.1105 503.944 99.3539 507.98 101.638C512.017 103.923 516.84 105.065 522.451 105.065ZM510.377 70.8688C510.51 69.0469 511.007 67.3716 511.869 65.843C512.863 64.0793 514.242 62.6707 516.006 61.6172C517.769 60.5637 519.799 60.0369 522.096 60.0369C524.298 60.0369 526.233 60.5163 527.902 61.4751C529.571 62.4339 530.879 63.7538 531.826 65.4347C532.773 67.1155 533.246 69.045 533.246 71.223L510.356 71.224L510.377 70.8688ZM582.011 105.065C587.527 105.065 592.291 103.888 596.304 101.532C600.317 99.1764 603.412 95.8856 605.59 91.6598C607.768 87.4339 608.857 82.5275 608.857 76.9403C608.857 71.3059 607.768 66.3757 605.59 62.1498C603.412 57.924 600.317 54.6333 596.304 52.2777C592.291 49.9221 587.527 48.7443 582.011 48.7443C576.495 48.7443 571.73 49.9221 567.717 52.2777C563.704 54.6333 560.609 57.924 558.431 62.1498C556.253 66.3757 555.164 71.3059 555.164 76.9403C555.164 82.5275 556.253 87.4339 558.431 91.6598C560.609 95.8856 563.704 99.1764 567.717 101.532C571.73 103.888 576.495 105.065 582.011 105.065ZM582.082 93.3466C579.548 93.3466 577.424 92.6304 575.707 91.1982C573.991 89.7659 572.701 87.8068 571.837 85.321C570.973 82.8352 570.54 80.0061 570.54 76.8338C570.54 73.6614 570.973 70.8324 571.837 68.3466C572.701 65.8608 573.991 63.8958 575.707 62.4517C577.424 61.0076 579.548 60.2855 582.082 60.2855C584.591 60.2855 586.686 61.0076 588.367 62.4517C590.048 63.8958 591.32 65.8608 592.185 68.3466C593.049 70.8324 593.481 73.6614 593.481 76.8338C593.481 80.0061 593.049 82.8352 592.185 85.321C591.32 87.8068 590.048 89.7659 588.367 91.1982C586.686 92.6304 584.591 93.3466 582.082 93.3466Z" fill="white"/>
</svg>
