<svg width="65" height="16" viewBox="0 0 65 16" fill="none" xmlns="http://www.w3.org/2000/svg">
<g clip-path="url(#clip0_265_185)">
<path d="M2.71258 5.76888C4.67804 2.3838 5.66078 0.691268 6.99494 0.220617C7.82881 -0.0735391 8.73982 -0.0735391 9.57369 0.220617C10.9079 0.691268 11.8906 2.3838 13.856 5.76888C15.8089 9.13225 16.7853 10.814 16.5281 12.1874C16.3673 13.046 15.9125 13.8236 15.2402 14.3892C14.1647 15.2941 12.2045 15.2941 8.28431 15.2941C4.36406 15.2941 2.40393 15.2941 1.32847 14.3892C0.656163 13.8236 0.201335 13.046 0.0405259 12.1874C-0.216716 10.814 0.759717 9.13225 2.71258 5.76888Z" fill="#FA5B30"/>
<path d="M11.0293 10.6615C10.0798 12.1602 9.60501 12.9096 8.97482 13.1354C8.53012 13.2948 8.03862 13.2948 7.59392 13.1354C6.96373 12.9096 6.48894 12.1602 5.53941 10.6615C4.54981 9.09952 4.05501 8.31856 4.15484 7.67729C4.22521 7.22542 4.47328 6.81477 4.85002 6.5266C5.38458 6.11768 6.35117 6.11768 8.28437 6.11768C10.2176 6.11768 11.1841 6.11768 11.7187 6.5266C12.0955 6.81477 12.3436 7.22542 12.4139 7.67729C12.5137 8.31856 12.0189 9.09952 11.0293 10.6615Z" fill="white"/>
<path d="M23.7305 10.7455C23.3978 10.7455 23.1014 10.6878 22.8411 10.5724C22.5809 10.4547 22.3749 10.2816 22.2233 10.0531C22.074 9.82224 21.9993 9.53484 21.9993 9.19087C21.9993 8.90121 22.0525 8.65794 22.1588 8.46106C22.2652 8.26418 22.41 8.10577 22.5933 7.98583C22.7766 7.86589 22.9848 7.77537 23.2179 7.71427C23.4532 7.65317 23.6999 7.61018 23.9579 7.58528C24.2611 7.5536 24.5055 7.52418 24.6911 7.49703C24.8767 7.46761 25.0113 7.42461 25.095 7.36804C25.1788 7.31146 25.2206 7.22773 25.2206 7.11685V7.09648C25.2206 6.8815 25.1527 6.71517 25.017 6.59749C24.8835 6.47982 24.6934 6.42098 24.4467 6.42098C24.1865 6.42098 23.9794 6.47869 23.8255 6.5941C23.6716 6.70725 23.5698 6.84982 23.52 7.0218L22.1826 6.91318C22.2505 6.59636 22.384 6.32254 22.5831 6.09172C22.7823 5.85863 23.0391 5.67986 23.3537 5.55539C23.6705 5.42866 24.0371 5.3653 24.4535 5.3653C24.7431 5.3653 25.0204 5.39925 25.2851 5.46714C25.5522 5.53502 25.7886 5.64025 25.9946 5.78282C26.2028 5.92539 26.3668 6.10869 26.4868 6.33273C26.6067 6.5545 26.6667 6.8204 26.6667 7.13043V10.6471H25.2953V9.92407H25.2546C25.1708 10.087 25.0588 10.2307 24.9185 10.3552C24.7782 10.4774 24.6096 10.5735 24.4128 10.6437C24.2159 10.7116 23.9884 10.7455 23.7305 10.7455ZM24.1446 9.74756C24.3573 9.74756 24.5451 9.7057 24.7081 9.62197C24.871 9.53597 24.9989 9.42056 25.0916 9.27573C25.1844 9.1309 25.2308 8.96683 25.2308 8.78353V8.23023C25.1856 8.25965 25.1233 8.28681 25.0441 8.3117C24.9672 8.33433 24.8801 8.35583 24.7827 8.3762C24.6854 8.3943 24.5881 8.41127 24.4908 8.42711C24.3935 8.44069 24.3053 8.45314 24.2261 8.46445C24.0563 8.48934 23.9081 8.52895 23.7814 8.58326C23.6547 8.63757 23.5562 8.71112 23.4861 8.8039C23.4159 8.89442 23.3808 9.00757 23.3808 9.14335C23.3808 9.34022 23.4521 9.49071 23.5947 9.59481C23.7395 9.69664 23.9228 9.74756 24.1446 9.74756ZM27.7886 12.6023V5.43319H29.2142V6.30896H29.2787C29.3421 6.16866 29.4337 6.02609 29.5537 5.88126C29.6759 5.73417 29.8343 5.61197 30.0289 5.51466C30.2258 5.41509 30.4702 5.3653 30.7621 5.3653C31.1423 5.3653 31.493 5.46487 31.8144 5.66401C32.1357 5.86089 32.3926 6.15848 32.5849 6.55676C32.7773 6.95278 32.8735 7.44951 32.8735 8.04693C32.8735 8.62852 32.7796 9.11958 32.5917 9.52013C32.4062 9.91842 32.1527 10.2205 31.8314 10.4265C31.5123 10.6301 31.1547 10.732 30.7587 10.732C30.4781 10.732 30.2394 10.6856 30.0425 10.5928C29.8479 10.5 29.6883 10.3835 29.5639 10.2432C29.4394 10.1006 29.3443 9.95689 29.2787 9.81206H29.2346V12.6023H27.7886ZM29.204 8.04014C29.204 8.35017 29.247 8.6206 29.333 8.85142C29.419 9.08224 29.5435 9.26215 29.7064 9.39114C29.8694 9.51787 30.0674 9.58123 30.3005 9.58123C30.5358 9.58123 30.7349 9.51674 30.8979 9.38775C31.0608 9.25649 31.1842 9.07546 31.2679 8.84463C31.3539 8.61155 31.3969 8.34338 31.3969 8.04014C31.3969 7.73917 31.355 7.4744 31.2713 7.24584C31.1875 7.01728 31.0642 6.8385 30.9013 6.70951C30.7383 6.58052 30.5381 6.51603 30.3005 6.51603C30.0651 6.51603 29.866 6.57826 29.703 6.70272C29.5424 6.82719 29.419 7.0037 29.333 7.23226C29.247 7.46082 29.204 7.73011 29.204 8.04014ZM33.8375 10.6471V5.43319H35.2835V10.6471H33.8375ZM34.5639 4.76109C34.3489 4.76109 34.1645 4.6898 34.0106 4.54723C33.859 4.4024 33.7832 4.22929 33.7832 4.02788C33.7832 3.82874 33.859 3.65788 34.0106 3.51532C34.1645 3.37049 34.3489 3.29807 34.5639 3.29807C34.7789 3.29807 34.9622 3.37049 35.1138 3.51532C35.2677 3.65788 35.3446 3.82874 35.3446 4.02788C35.3446 4.22929 35.2677 4.4024 35.1138 4.54723C34.9622 4.6898 34.7789 4.76109 34.5639 4.76109ZM37.2871 10.7354C37.0631 10.7354 36.8707 10.6561 36.7101 10.4977C36.5517 10.3371 36.4724 10.1447 36.4724 9.92068C36.4724 9.69891 36.5517 9.50882 36.7101 9.35041C36.8707 9.192 37.0631 9.11279 37.2871 9.11279C37.5044 9.11279 37.6945 9.192 37.8574 9.35041C38.0203 9.50882 38.1018 9.69891 38.1018 9.92068C38.1018 10.07 38.0633 10.2069 37.9864 10.3314C37.9117 10.4536 37.8133 10.552 37.6911 10.6267C37.5689 10.6991 37.4342 10.7354 37.2871 10.7354ZM44.1499 5.43319L42.3271 10.6471H40.6977L38.8749 5.43319H40.4024L41.4852 9.16371H41.5395L42.619 5.43319H44.1499ZM44.8899 10.6471V5.43319H46.3359V10.6471H44.8899ZM45.6163 4.76109C45.4013 4.76109 45.2169 4.6898 45.063 4.54723C44.9114 4.4024 44.8356 4.22929 44.8356 4.02788C44.8356 3.82874 44.9114 3.65788 45.063 3.51532C45.2169 3.37049 45.4013 3.29807 45.6163 3.29807C45.8313 3.29807 46.0146 3.37049 46.1662 3.51532C46.3201 3.65788 46.397 3.82874 46.397 4.02788C46.397 4.22929 46.3201 4.4024 46.1662 4.54723C46.0146 4.6898 45.8313 4.76109 45.6163 4.76109ZM49.4156 10.732C49.0195 10.732 48.6609 10.6301 48.3395 10.4265C48.0204 10.2205 47.767 9.91842 47.5792 9.52013C47.3936 9.11958 47.3008 8.62852 47.3008 8.04693C47.3008 7.44951 47.397 6.95278 47.5893 6.55676C47.7817 6.15848 48.0374 5.86089 48.3565 5.66401C48.6778 5.46487 49.0297 5.3653 49.4122 5.3653C49.7041 5.3653 49.9474 5.41509 50.142 5.51466C50.3389 5.61197 50.4973 5.73417 50.6172 5.88126C50.7394 6.02609 50.8322 6.16866 50.8955 6.30896H50.9397V3.69522H52.3823V10.6471H50.9566V9.81206H50.8955C50.8277 9.95689 50.7315 10.1006 50.607 10.2432C50.4848 10.3835 50.3253 10.5 50.1284 10.5928C49.9338 10.6856 49.6962 10.732 49.4156 10.732ZM49.8738 9.58123C50.1069 9.58123 50.3038 9.51787 50.4644 9.39114C50.6274 9.26215 50.7518 9.08224 50.8378 8.85142C50.9261 8.6206 50.9702 8.35017 50.9702 8.04014C50.9702 7.73011 50.9272 7.46082 50.8412 7.23226C50.7552 7.0037 50.6308 6.82719 50.4678 6.70272C50.3049 6.57826 50.1069 6.51603 49.8738 6.51603C49.6362 6.51603 49.4359 6.58052 49.273 6.70951C49.1101 6.8385 48.9867 7.01728 48.903 7.24584C48.8193 7.4744 48.7774 7.73917 48.7774 8.04014C48.7774 8.34338 48.8193 8.61155 48.903 8.84463C48.989 9.07546 49.1123 9.25649 49.273 9.38775C49.4359 9.51674 49.6362 9.58123 49.8738 9.58123ZM55.9474 10.7489C55.411 10.7489 54.9494 10.6403 54.5624 10.4231C54.1777 10.2036 53.8813 9.89352 53.6731 9.49298C53.4649 9.09017 53.3608 8.61381 53.3608 8.0639C53.3608 7.52758 53.4649 7.05688 53.6731 6.65181C53.8813 6.24673 54.1743 5.93105 54.5522 5.70475C54.9324 5.47845 55.3782 5.3653 55.8897 5.3653C56.2336 5.3653 56.5538 5.42074 56.8503 5.53163C57.149 5.64025 57.4092 5.80432 57.631 6.02383C57.8551 6.24334 58.0293 6.51942 58.1538 6.85208C58.2782 7.18247 58.3405 7.56944 58.3405 8.01299V8.41014H53.9378V7.514H56.9793C56.9793 7.30581 56.934 7.12137 56.8435 6.9607C56.753 6.80003 56.6274 6.67443 56.4667 6.58392C56.3083 6.49113 56.1239 6.44474 55.9134 6.44474C55.6939 6.44474 55.4993 6.49566 55.3296 6.59749C55.1621 6.69706 55.0309 6.83171 54.9358 7.00144C54.8408 7.1689 54.7921 7.35559 54.7899 7.56152V8.41353C54.7899 8.67151 54.8374 8.89442 54.9324 9.08224C55.0297 9.27007 55.1666 9.4149 55.3431 9.51674C55.5197 9.61857 55.729 9.66949 55.9711 9.66949C56.1318 9.66949 56.2789 9.64686 56.4124 9.6016C56.5459 9.55634 56.6602 9.48845 56.7552 9.39793C56.8503 9.30741 56.9227 9.19653 56.9725 9.06527L58.3099 9.15353C58.242 9.47487 58.1029 9.75548 57.8924 9.99536C57.6842 10.233 57.4149 10.4185 57.0845 10.552C56.7564 10.6833 56.3773 10.7489 55.9474 10.7489ZM61.6399 10.7489C61.1126 10.7489 60.6566 10.6369 60.2719 10.4129C59.8895 10.1866 59.5942 9.87202 59.386 9.46921C59.1778 9.06414 59.0737 8.59457 59.0737 8.06051C59.0737 7.52192 59.1778 7.05122 59.386 6.64841C59.5942 6.24334 59.8895 5.92878 60.2719 5.70475C60.6566 5.47845 61.1126 5.3653 61.6399 5.3653C62.1672 5.3653 62.622 5.47845 63.0045 5.70475C63.3892 5.92878 63.6856 6.24334 63.8938 6.64841C64.102 7.05122 64.2061 7.52192 64.2061 8.06051C64.2061 8.59457 64.102 9.06414 63.8938 9.46921C63.6856 9.87202 63.3892 10.1866 63.0045 10.4129C62.622 10.6369 62.1672 10.7489 61.6399 10.7489ZM61.6467 9.62875C61.8866 9.62875 62.0868 9.56086 62.2475 9.42509C62.4082 9.28704 62.5292 9.09922 62.6107 8.8616C62.6944 8.62399 62.7363 8.35357 62.7363 8.05033C62.7363 7.74709 62.6944 7.47666 62.6107 7.23905C62.5292 7.00144 62.4082 6.81361 62.2475 6.67557C62.0868 6.53752 61.8866 6.4685 61.6467 6.4685C61.4045 6.4685 61.2009 6.53752 61.0357 6.67557C60.8727 6.81361 60.7494 7.00144 60.6657 7.23905C60.5842 7.47666 60.5435 7.74709 60.5435 8.05033C60.5435 8.35357 60.5842 8.62399 60.6657 8.8616C60.7494 9.09922 60.8727 9.28704 61.0357 9.42509C61.2009 9.56086 61.4045 9.62875 61.6467 9.62875Z" fill="white"/>
</g>
<defs>
<clipPath id="clip0_265_185">
<rect width="64.6667" height="15.2941" fill="white"/>
</clipPath>
</defs>
</svg>
