<?xml version="1.0" encoding="UTF-8"?>
<svg width="48px" height="48px" viewBox="0 0 48 48" version="1.1" xmlns="http://www.w3.org/2000/svg" xmlns:xlink="http://www.w3.org/1999/xlink">
    <title>Icon mic</title>
    <g id="Demos" stroke="none" stroke-width="1" fill="none" fill-rule="evenodd">
        <g id="Record" transform="translate(-504.000000, -308.000000)">
            <g id="Group" transform="translate(464.000000, 52.000000)">
                <g id="Group-2" transform="translate(40.000000, 212.000000)">
                    <g id="Icon-mic" transform="translate(0.000000, 44.000000)">
                        <rect id="Rectangle" fill="#FEF3F0" x="0" y="0" width="48" height="48" rx="8"></rect>
                        <g id="microphone" transform="translate(17.000000, 15.000000)" fill="#E53101">
                            <path d="M4,3 C4,1.34314575 5.34314575,0 7,0 C8.65685425,0 10,1.34314575 10,3 L10,7 C10,8.65685425 8.65685425,10 7,10 C5.34314575,10 4,8.65685425 4,7 L4,3 Z M8,13.93 C11.4444618,13.4323998 14.0004627,10.4802188 14,7 C14,6.44771525 13.5522847,6 13,6 C12.4477153,6 12,6.44771525 12,7 C12,9.76142375 9.76142375,12 7,12 C4.23857625,12 2,9.76142375 2,7 C2,6.44771525 1.55228475,6 1,6 C0.44771525,6 0,6.44771525 0,7 C-0.000462698353,10.4802188 2.55553817,13.4323998 6,13.93 L6,16 L3,16 C2.44771525,16 2,16.4477153 2,17 C2,17.5522847 2.44771525,18 3,18 L11,18 C11.5522847,18 12,17.5522847 12,17 C12,16.4477153 11.5522847,16 11,16 L8,16 L8,13.93 Z" id="Shape"></path>
                        </g>
                    </g>
                </g>
            </g>
        </g>
    </g>
</svg>