<svg width="16" height="16" viewBox="0 0 16 16" fill="none" xmlns="http://www.w3.org/2000/svg">
<g clip-path="url(#clip0_170_486)">
<path d="M8 0.666687C7.46957 0.666687 6.96086 0.877401 6.58579 1.25247C6.21071 1.62755 6 2.13625 6 2.66669V8.00002C6 8.53045 6.21071 9.03916 6.58579 9.41423C6.96086 9.78931 7.46957 10 8 10C8.53043 10 9.03914 9.78931 9.41421 9.41423C9.78929 9.03916 10 8.53045 10 8.00002V2.66669C10 2.13625 9.78929 1.62755 9.41421 1.25247C9.03914 0.877401 8.53043 0.666687 8 0.666687Z" stroke="#A6B5CA" stroke-width="2" stroke-linecap="round" stroke-linejoin="round"/>
<path d="M12.6667 6.66669V8.00002C12.6667 9.2377 12.175 10.4247 11.2999 11.2999C10.4247 12.175 9.23772 12.6667 8.00004 12.6667C6.76236 12.6667 5.57538 12.175 4.70021 11.2999C3.82504 10.4247 3.33337 9.2377 3.33337 8.00002V6.66669" stroke="#A6B5CA" stroke-width="2" stroke-linecap="round" stroke-linejoin="round"/>
<path d="M8 12.6667V15.3334" stroke="#A6B5CA" stroke-width="2" stroke-linecap="round" stroke-linejoin="round"/>
<path d="M5.33337 15.3333H10.6667" stroke="#A6B5CA" stroke-width="2" stroke-linecap="round" stroke-linejoin="round"/>
</g>
<defs>
<clipPath id="clip0_170_486">
<rect width="16" height="16" fill="white"/>
</clipPath>
</defs>
</svg>
