<?xml version="1.0" encoding="UTF-8"?>
<svg width="48px" height="48px" viewBox="0 0 48 48" version="1.1" xmlns="http://www.w3.org/2000/svg" xmlns:xlink="http://www.w3.org/1999/xlink">
    <title>Icon screen layout</title>
    <g id="Demos" stroke="none" stroke-width="1" fill="none" fill-rule="evenodd">
        <g id="Record" transform="translate(-504.000000, -512.000000)">
            <g id="Group" transform="translate(464.000000, 52.000000)">
                <g id="Group-3" transform="translate(40.000000, 416.000000)">
                    <g id="Icon-screen-layout" transform="translate(0.000000, 44.000000)">
                        <rect id="Rectangle" fill="#FEF3F0" x="0" y="0" width="48" height="48" rx="8"></rect>
                        <g id="tv" transform="translate(16.000000, 16.000000)" fill="#E53101" fill-rule="nonzero">
                            <path d="M15,0 L1,0 C0.4,0 0,0.4 0,1 L0,12 C0,12.6 0.4,13 1,13 L7,13 L7,14 L3,14 L3,16 L13,16 L13,14 L9,14 L9,13 L15,13 C15.6,13 16,12.6 16,12 L16,1 C16,0.4 15.6,0 15,0 Z M14,11 L2,11 L2,2 L14,2 L14,11 Z" id="Shape"></path>
                        </g>
                    </g>
                </g>
            </g>
        </g>
    </g>
</svg>